<svg class="svg-inline--fa fa-lightbulb fa-w-11" aria-hidden="true" data-icon="lightbulb" data-prefix="far" focusable="false" role="img" version="1.1" viewBox="0 0 592 592" xmlns="http://www.w3.org/2000/svg"><path d="m296 120c-52.94 0-96 43.06-96 96 0 8.84 7.16 16 16 16s16-7.16 16-16c0-35.3 28.72-64 64-64 8.84 0 16-7.16 16-16s-7.16-16-16-16zm-79.94 379.17c0 3.15 0.93 6.22 2.68 8.84l24.51 36.84c2.97 4.46 7.97 7.14 13.32 7.14h78.85c5.36 0 10.36-2.68 13.32-7.14l24.51-36.84c1.74-2.62 2.67-5.7 2.68-8.84l0.05-43.18h-159.96zm79.94-459.17c-102.28 0-176 82.97-176 176 0 44.37 16.45 84.85 43.56 115.78 16.64 18.99 42.74 58.8 52.42 92.16v0.06h48v-0.12c-0.01-4.77-0.72-9.51-2.15-14.07-5.59-17.81-22.82-64.77-62.17-109.67-20.54-23.43-31.52-53.15-31.61-84.14-0.2-73.64 59.67-128 127.95-128 70.58 0 128 57.42 128 128 0 30.97-11.24 60.85-31.65 84.14-39.11 44.61-56.42 91.47-62.1 109.46a47.507 47.507 0 0 0-2.22 14.3v0.1h48v-0.05c9.68-33.37 35.78-73.18 52.42-92.16 27.1-30.94 43.55-71.42 43.55-115.79 0-97.2-78.8-176-176-176z" fill="#fff"/></svg>
